<svg xmlns="http://www.w3.org/2000/svg" width="24" height="24" viewBox="0 0 24 24"><defs><style>.a{fill:#fff;fill-rule:evenodd;}</style></defs><path class="a" d="M12,0A12,12,0,1,1,0,12,12,12,0,0,1,12,0Zm2,19.484V16.516A.5.5,0,0,0,13.516,16h-3a.52.52,0,0,0-.516.516v2.969a.52.52,0,0,0,.516.516h3A.5.5,0,0,0,14,19.484Zm-.031-5.375.281-9.7a.313.313,0,0,0-.156-.281A.6.6,0,0,0,13.719,4H10.281a.6.6,0,0,0-.375.125.313.313,0,0,0-.156.281l.266,9.7c0,.219.234.391.531.391h2.891A.494.494,0,0,0,13.969,14.109Z"/></svg>